<svg viewBox="0 0 400 300" xmlns="http://www.w3.org/2000/svg">
  <defs>
    <linearGradient id="g-fan-ind-24" x1="0%" y1="0%" x2="100%" y2="100%">
      <stop offset="0%" stop-color="#2451FF"/>
      <stop offset="100%" stop-color="#6E3CFF"/>
    </linearGradient>
    <pattern id="dots-g-fan-ind-24" width="18" height="18" patternUnits="userSpaceOnUse">
      <circle cx="2" cy="2" r="1.4" fill="rgba(255,255,255,0.10)"/>
    </pattern>
  </defs>
  <rect width="400" height="300" fill="url(#g-fan-ind-24)"/>
  <rect width="400" height="300" fill="url(#dots-g-fan-ind-24)"/>
  
  <g transform="translate(200,150)">
    <circle r="95" fill="none" stroke="rgba(255,255,255,0.35)" stroke-width="6"/>
    <circle r="95" fill="none" stroke="rgba(255,255,255,0.15)" stroke-width="16"/>
    <g fill="rgba(255,255,255,0.92)">
      <path d="M0,0 C0,-55 -32,-78 -55,-70 A22,22 0 0 0 -55,-30 C-30,-30 0,-10 0,0 Z"/>
      <path d="M0,0 C55,0 78,32 70,55 A22,22 0 0 0 30,55 C30,30 10,0 0,0 Z"/>
      <path d="M0,0 C0,55 32,78 55,70 A22,22 0 0 0 55,30 C30,30 0,10 0,0 Z"/>
      <path d="M0,0 C-55,0 -78,-32 -70,-55 A22,22 0 0 0 -30,-55 C-30,-30 -10,0 0,0 Z"/>
    </g>
    <circle r="12" fill="#14162B"/>
    <circle r="5" fill="rgba(255,255,255,0.9)"/>
  </g>
  <rect x="185" y="245" width="30" height="45" rx="4" fill="rgba(255,255,255,0.5)"/>
</svg>